# xmcd
#
# Track frame offsets:
#	150
#	19292
#	37406
#	54775
#	71677
#	85713
#	105537
#	124930
#	145134
#	163321
#	182839
#
# Disc length: 2704 seconds
#
# Revision: 0
# Processed by: cddbd v1.5.1PL0 Copyright (c) Steve Scherf et al.
# Submitted via: dBpowerAMP V4.0
#
DISCID=9b0a8e0b
DTITLE=Keith Anderson - Three Chord Country and American Rock and Roll
DYEAR=2005
DGENRE=Country
TTITLE0=Keith Anderson - Three Chord Country and American Rock and Roll 
TTITLE1=Keith Anderson - Podunk 
TTITLE2=Keith Anderson - Wrap Around 
TTITLE3=Keith Anderson - XXL 
TTITLE4=Keith Anderson - Pickin' Wildflowers 
TTITLE5=Keith Anderson - Every Time I Hear Your Name 
TTITLE6=Keith Anderson - Stick It 
TTITLE7=Keith Anderson - Plan B 
TTITLE8=Keith Anderson - Lazy With Your Love 
TTITLE9=Keith Anderson - The Clothes Don't Make the Man 
TTITLE10=Keith Anderson - I'll Know When I Get There 
EXTD=Three Chord Country and American Rock and Roll
EXTT0=
EXTT1=
EXTT2=
EXTT3=
EXTT4=
EXTT5=
EXTT6=
EXTT7=
EXTT8=
EXTT9=
EXTT10=
PLAYORDER=
